<?xml version="1.0" encoding="UTF-8"?>
<svg xmlns="http://www.w3.org/2000/svg" xmlns:xlink="http://www.w3.org/1999/xlink" viewBox="0 0 261.85 57.57">
  <defs>
    <style>
      .cls-1, .cls-2, .cls-3 {
        fill: none;
      }

      .cls-4 {
        fill: #010101;
      }

      .cls-2, .cls-3 {
        stroke: #00cdff;
        stroke-linecap: round;
        stroke-linejoin: round;
        stroke-width: .6px;
      }

      .cls-5 {
        fill: #8b1725;
      }

      .cls-6 {
        isolation: isolate;
      }

      .cls-7 {
        fill: #00cdff;
      }

      .cls-8 {
        fill: maroon;
      }

      .cls-9 {
        fill: #024066;
      }

      .cls-10 {
        fill: #595a5c;
      }

      .cls-11 {
        clip-path: url(#clippath);
      }

      .cls-3 {
        mix-blend-mode: darken;
      }
    </style>
    <clipPath id="clippath">
      <path class="cls-1" d="M33.93,15.32c-2.38-4.09-5.79-7.19-9.7-9.22l-10.93,21.8,11.95,20.47c11.52-6.73,15.41-21.52,8.69-33.05Z"/>
    </clipPath>
  </defs>
  <g class="cls-6">
    <g id="Layer_2" data-name="Layer 2">
      <g id="Layer_1-2" data-name="Layer 1">
        <g>
          <g>
            <g>
              <path class="cls-8" d="M.88,6.63C12.4-.1,27.2,3.79,33.93,15.32c6.73,11.52,2.84,26.32-8.69,33.05L.88,6.63Z"/>
              <path class="cls-7" d="M26.85.85c14.78,7.41,20.76,25.41,13.34,40.19-7.41,14.78-25.41,20.76-40.19,13.34L26.85.85Z"/>
            </g>
            <path class="cls-1" d="M33.93,15.32c-2.38-4.09-5.79-7.19-9.7-9.22l-10.93,21.8,11.95,20.47c11.52-6.73,15.41-21.52,8.69-33.05Z"/>
            <g class="cls-11">
              <g>
                <path class="cls-9" d="M33.93,15.32c-2.38-4.09-5.79-7.19-9.7-9.22l-10.93,21.8,11.95,20.47c11.52-6.73,15.41-21.52,8.69-33.05Z"/>
                <line class="cls-3" x1="31.89" y1="47.88" x2="26.42" y2="45.83"/>
                <g>
                  <line class="cls-2" x1="26.09" y1="14.56" x2="22.81" y2="4.4"/>
                  <line class="cls-2" x1="26.09" y1="14.56" x2="29.21" y2="6.72"/>
                  <line class="cls-2" x1="26.09" y1="14.56" x2="20.01" y2="10.3"/>
                  <line class="cls-2" x1="26.09" y1="14.56" x2="36.73" y2="15.5"/>
                  <line class="cls-2" x1="26.09" y1="14.56" x2="32.36" y2="24.17"/>
                  <line class="cls-2" x1="38.88" y1="16.66" x2="32.36" y2="24.17"/>
                  <line class="cls-2" x1="41.3" y1="24.85" x2="32.36" y2="24.17"/>
                  <line class="cls-2" x1="32.57" y1="30.11" x2="32.36" y2="24.17"/>
                  <line class="cls-2" x1="26.32" y1="28.74" x2="32.36" y2="24.17"/>
                  <line class="cls-2" x1="26.32" y1="28.74" x2="32.57" y2="30.11"/>
                  <line class="cls-2" x1="39.62" y1="23.59" x2="32.57" y2="30.11"/>
                  <line class="cls-2" x1="40.62" y1="30.58" x2="32.57" y2="30.11"/>
                  <line class="cls-2" x1="32.63" y1="36.21" x2="32.57" y2="30.11"/>
                  <line class="cls-2" x1="32.63" y1="36.21" x2="38.72" y2="30.95"/>
                  <line class="cls-2" x1="32.63" y1="36.21" x2="38.78" y2="35.63"/>
                  <line class="cls-2" x1="32.63" y1="36.21" x2="37.09" y2="39.99"/>
                  <line class="cls-2" x1="32.63" y1="36.21" x2="32.52" y2="42.1"/>
                  <line class="cls-2" x1="32.63" y1="36.21" x2="25.79" y2="37.15"/>
                  <line class="cls-2" x1="26.32" y1="28.74" x2="32.63" y2="36.21"/>
                  <line class="cls-2" x1="26.32" y1="28.74" x2="25.79" y2="37.21"/>
                  <line class="cls-2" x1="26.32" y1="28.74" x2="19.33" y2="34.63"/>
                  <line class="cls-2" x1="25.79" y1="37.15" x2="19.33" y2="34.63"/>
                  <line class="cls-2" x1="25.27" y1="41.04" x2="19.33" y2="34.63"/>
                  <line class="cls-2" x1="18.17" y1="38.05" x2="19.33" y2="34.63"/>
                  <line class="cls-2" x1="11.5" y1="35.47" x2="19.33" y2="34.63"/>
                  <line class="cls-2" x1="13.07" y1="29.48" x2="19.33" y2="34.63"/>
                  <line class="cls-2" x1="25.79" y1="37.15" x2="25.27" y2="41.04"/>
                  <line class="cls-2" x1="25.79" y1="37.15" x2="32.52" y2="42.1"/>
                  <line class="cls-2" x1="32.47" y1="41.99" x2="25.27" y2="41.04"/>
                  <line class="cls-2" x1="32.47" y1="41.99" x2="26.42" y2="45.83"/>
                  <line class="cls-2" x1="26.42" y1="52.19" x2="26.42" y2="45.83"/>
                  <line class="cls-2" x1="21.43" y1="45.62" x2="26.42" y2="45.83"/>
                  <line class="cls-2" x1="26.42" y1="45.88" x2="25.27" y2="41.04"/>
                  <line class="cls-2" x1="22.64" y1="47.04" x2="25.27" y2="41.04"/>
                  <line class="cls-2" x1="18.75" y1="45.14" x2="25.27" y2="41.04"/>
                  <line class="cls-2" x1="18.38" y1="39.94" x2="25.27" y2="41.04"/>
                  <line class="cls-2" x1="26.32" y1="28.74" x2="19.49" y2="26.48"/>
                  <line class="cls-2" x1="19.33" y1="34.63" x2="19.49" y2="26.48"/>
                  <line class="cls-2" x1="9.08" y1="29.53" x2="19.49" y2="26.48"/>
                  <line class="cls-2" x1="9.24" y1="24.7" x2="19.49" y2="26.48"/>
                  <line class="cls-2" x1="11.34" y1="20.49" x2="19.49" y2="26.48"/>
                  <line class="cls-2" x1="22.17" y1="21.44" x2="19.49" y2="26.48"/>
                  <line class="cls-2" x1="19.17" y1="17.76" x2="19.49" y2="26.48"/>
                  <line class="cls-2" x1="19.17" y1="17.76" x2="15.39" y2="22.49"/>
                  <line class="cls-2" x1="19.17" y1="17.76" x2="19.17" y2="11.98"/>
                  <line class="cls-2" x1="19.17" y1="17.76" x2="15.23" y2="16.29"/>
                  <line class="cls-2" x1="19.17" y1="17.76" x2="21.85" y2="19.81"/>
                  <line class="cls-2" x1="19.17" y1="17.76" x2="22.22" y2="21.49"/>
                  <line class="cls-2" x1="21.8" y1="19.7" x2="22.22" y2="21.49"/>
                  <line class="cls-2" x1="26.09" y1="14.56" x2="26.32" y2="28.74"/>
                  <line class="cls-2" x1="26.09" y1="14.56" x2="19.22" y2="17.76"/>
                  <line class="cls-2" x1="26.09" y1="14.56" x2="21.8" y2="19.76"/>
                  <line class="cls-2" x1="26.09" y1="14.56" x2="22.17" y2="21.44"/>
                </g>
              </g>
            </g>
          </g>
          <rect class="cls-4" x="53.41" y="14.57" width="208.44" height=".81"/>
          <g>
            <polygon class="cls-5" points="56 1.94 53.32 1.94 53.32 .15 60.62 .15 60.62 1.94 57.94 1.94 57.94 8.96 56 8.96 56 1.94"/>
            <polygon class="cls-5" points="62.55 .15 64.48 .15 64.48 3.64 68.06 3.64 68.06 .15 69.99 .15 69.99 8.96 68.06 8.96 68.06 5.42 64.48 5.42 64.48 8.96 62.55 8.96 62.55 .15"/>
            <polygon class="cls-5" points="72.55 .15 79.19 .15 79.19 1.88 74.47 1.88 74.47 3.66 78.63 3.66 78.63 5.39 74.47 5.39 74.47 7.24 79.26 7.24 79.26 8.96 72.55 8.96 72.55 .15"/>
            <g>
              <path class="cls-5" d="M85.5,5.18V.15h1.94v4.98c0,1.43.72,2.18,1.9,2.18s1.9-.72,1.9-2.11V.15h1.94v4.97c0,2.67-1.5,3.98-3.86,3.98s-3.81-1.32-3.81-3.91"/>
              <polygon class="cls-5" points="95.59 .15 97.37 .15 101.5 5.57 101.5 .15 103.41 .15 103.41 8.96 101.77 8.96 97.5 3.36 97.5 8.96 95.59 8.96 95.59 .15"/>
              <rect class="cls-5" x="106.06" y=".15" width="1.94" height="8.81"/>
              <polygon class="cls-5" points="109.88 .15 112.02 .15 114.32 6.35 116.63 .15 118.71 .15 115.15 9.02 113.44 9.02 109.88 .15"/>
              <polygon class="cls-5" points="120.51 .15 127.16 .15 127.16 1.88 122.44 1.88 122.44 3.66 126.59 3.66 126.59 5.39 122.44 5.39 122.44 7.24 127.22 7.24 127.22 8.96 120.51 8.96 120.51 .15"/>
              <path class="cls-5" d="M129.38.15h4.03c1.12,0,1.99.32,2.57.89.49.49.76,1.18.76,2.01v.03c0,1.42-.77,2.31-1.89,2.73l2.15,3.15h-2.27l-1.89-2.82h-1.52v2.82h-1.94V.15ZM133.28,4.43c.94,0,1.48-.5,1.48-1.25v-.03c0-.83-.58-1.26-1.52-1.26h-1.93v2.53h1.96Z"/>
              <path class="cls-5" d="M138.32,7.68l1.14-1.37c.79.66,1.62,1.07,2.63,1.07.79,0,1.27-.31,1.27-.83v-.03c0-.49-.3-.74-1.77-1.12-1.77-.45-2.92-.94-2.92-2.69v-.02c0-1.6,1.28-2.66,3.08-2.66,1.28,0,2.38.4,3.27,1.12l-1.01,1.46c-.78-.54-1.55-.87-2.29-.87s-1.13.34-1.13.77v.03c0,.58.38.77,1.9,1.16,1.79.47,2.79,1.11,2.79,2.64v.03c0,1.75-1.33,2.73-3.23,2.73-1.33,0-2.68-.47-3.74-1.41"/>
              <rect class="cls-5" x="147.5" y=".15" width="1.94" height="8.81"/>
              <polygon class="cls-5" points="154.13 1.94 151.45 1.94 151.45 .15 158.75 .15 158.75 1.94 156.07 1.94 156.07 8.96 154.13 8.96 154.13 1.94"/>
              <polygon class="cls-5" points="163.16 5.49 159.77 .15 162.04 .15 164.14 3.69 166.28 .15 168.48 .15 165.09 5.45 165.09 8.96 163.16 8.96 163.16 5.49"/>
              <path class="cls-5" d="M173.95,4.58v-.03c0-2.5,1.97-4.56,4.69-4.56s4.67,2.03,4.67,4.53v.03c0,2.5-1.98,4.56-4.69,4.56s-4.67-2.03-4.67-4.53M181.29,4.58v-.03c0-1.51-1.11-2.77-2.67-2.77s-2.64,1.23-2.64,2.74v.03c0,1.51,1.11,2.77,2.67,2.77s2.64-1.23,2.64-2.74"/>
              <polygon class="cls-5" points="185.48 .15 192.18 .15 192.18 1.91 187.41 1.91 187.41 3.79 191.62 3.79 191.62 5.55 187.41 5.55 187.41 8.96 185.48 8.96 185.48 .15"/>
              <path class="cls-5" d="M198,4.58v-.03c0-2.5,1.89-4.56,4.59-4.56,1.66,0,2.66.55,3.47,1.36l-1.23,1.42c-.68-.62-1.37-.99-2.25-.99-1.48,0-2.55,1.23-2.55,2.74v.03c0,1.51,1.04,2.77,2.55,2.77,1.01,0,1.62-.4,2.32-1.03l1.23,1.25c-.91.97-1.91,1.57-3.61,1.57-2.59,0-4.52-2-4.52-4.53"/>
              <polygon class="cls-5" points="208.11 .15 210.05 .15 210.05 3.64 213.62 3.64 213.62 .15 215.56 .15 215.56 8.96 213.62 8.96 213.62 5.42 210.05 5.42 210.05 8.96 208.11 8.96 208.11 .15"/>
              <rect class="cls-5" x="218.2" y=".15" width="1.94" height="8.81"/>
              <path class="cls-5" d="M222.39,4.58v-.03c0-2.5,1.89-4.56,4.59-4.56,1.66,0,2.66.55,3.47,1.36l-1.23,1.42c-.68-.62-1.37-.99-2.25-.99-1.48,0-2.55,1.23-2.55,2.74v.03c0,1.51,1.04,2.77,2.55,2.77,1.01,0,1.62-.4,2.32-1.03l1.23,1.25c-.91.97-1.91,1.57-3.61,1.57-2.59,0-4.52-2-4.52-4.53"/>
              <path class="cls-5" d="M235.53.09h1.79l3.77,8.87h-2.03l-.81-1.98h-3.73l-.8,1.98h-1.98L235.53.09ZM237.57,5.27l-1.17-2.86-1.17,2.86h2.34Z"/>
              <path class="cls-5" d="M241.93,4.58v-.03c0-2.5,1.95-4.56,4.62-4.56,1.59,0,2.54.43,3.46,1.21l-1.22,1.47c-.68-.57-1.28-.89-2.3-.89-1.41,0-2.53,1.25-2.53,2.74v.03c0,1.61,1.11,2.79,2.67,2.79.7,0,1.33-.18,1.83-.53v-1.26h-1.95v-1.67h3.83v3.83c-.91.77-2.15,1.4-3.76,1.4-2.74,0-4.63-1.92-4.63-4.53"/>
              <path class="cls-5" d="M252.24,4.58v-.03c0-2.5,1.98-4.56,4.69-4.56s4.67,2.03,4.67,4.53v.03c0,2.5-1.98,4.56-4.69,4.56s-4.67-2.03-4.67-4.53M259.58,4.58v-.03c0-1.51-1.11-2.77-2.67-2.77s-2.64,1.23-2.64,2.74v.03c0,1.51,1.11,2.77,2.67,2.77s2.64-1.23,2.64-2.74"/>
            </g>
          </g>
          <g>
            <path class="cls-10" d="M53.36,21.46h5.65c4.55,0,7.7,3.13,7.7,7.21v.04c0,4.08-3.15,7.25-7.7,7.25h-5.65v-14.49ZM56.55,24.34v8.74h2.46c2.61,0,4.37-1.76,4.37-4.33v-.04c0-2.57-1.76-4.37-4.37-4.37h-2.46Z"/>
            <path class="cls-10" d="M73.59,21.36h2.94l6.21,14.6h-3.33l-1.33-3.25h-6.13l-1.33,3.25h-3.25l6.21-14.6ZM76.94,29.89l-1.93-4.7-1.93,4.7h3.85Z"/>
            <path class="cls-10" d="M86.59,24.4h-4.41v-2.94h12.01v2.94h-4.41v11.55h-3.19v-11.55Z"/>
            <path class="cls-10" d="M99.84,21.36h2.94l6.21,14.6h-3.33l-1.33-3.25h-6.13l-1.33,3.25h-3.25l6.21-14.6ZM103.19,29.89l-1.93-4.7-1.93,4.7h3.85Z"/>
            <path class="cls-10" d="M122.61,21.36h2.94l6.21,14.6h-3.33l-1.33-3.25h-6.13l-1.33,3.25h-3.25l6.21-14.6ZM125.96,29.89l-1.93-4.7-1.93,4.7h3.85Z"/>
            <path class="cls-10" d="M134.1,21.46h2.94l6.79,8.92v-8.92h3.15v14.49h-2.71l-7.02-9.21v9.21h-3.15v-14.49Z"/>
            <path class="cls-10" d="M150.56,21.46h5.65c4.55,0,7.7,3.13,7.7,7.21v.04c0,4.08-3.15,7.25-7.7,7.25h-5.65v-14.49ZM153.75,24.34v8.74h2.46c2.61,0,4.37-1.76,4.37-4.33v-.04c0-2.57-1.76-4.37-4.37-4.37h-2.46Z"/>
            <path class="cls-10" d="M53.36,42.43h5.65c4.55,0,7.7,3.13,7.7,7.21v.04c0,4.08-3.15,7.25-7.7,7.25h-5.65v-14.49ZM56.55,45.3v8.74h2.46c2.61,0,4.37-1.76,4.37-4.33v-.04c0-2.57-1.76-4.37-4.37-4.37h-2.46Z"/>
            <path class="cls-10" d="M69.65,42.43h10.93v2.84h-7.76v2.94h6.83v2.84h-6.83v3.04h7.87v2.84h-11.04v-14.49Z"/>
            <path class="cls-10" d="M83.63,42.43h3.44l3.81,6.13,3.81-6.13h3.44v14.49h-3.17v-9.46l-4.08,6.19h-.08l-4.04-6.13v9.4h-3.13v-14.49Z"/>
            <path class="cls-10" d="M101.06,49.72v-.04c0-4.12,3.25-7.5,7.72-7.5s7.68,3.33,7.68,7.45v.04c0,4.12-3.25,7.5-7.72,7.5s-7.68-3.33-7.68-7.45ZM113.13,49.72v-.04c0-2.49-1.82-4.56-4.39-4.56s-4.35,2.03-4.35,4.51v.04c0,2.49,1.82,4.56,4.39,4.56s4.35-2.03,4.35-4.51Z"/>
            <path class="cls-10" d="M118.76,49.72v-.04c0-4.12,3.11-7.5,7.56-7.5,2.73,0,4.37.91,5.71,2.24l-2.03,2.34c-1.12-1.02-2.26-1.64-3.71-1.64-2.44,0-4.2,2.03-4.2,4.51v.04c0,2.49,1.72,4.56,4.2,4.56,1.66,0,2.67-.66,3.81-1.7l2.03,2.05c-1.49,1.59-3.15,2.59-5.94,2.59-4.27,0-7.43-3.29-7.43-7.45Z"/>
            <path class="cls-10" d="M134.78,42.43h6.63c1.84,0,3.27.52,4.22,1.47.81.81,1.24,1.95,1.24,3.31v.04c0,2.34-1.26,3.81-3.11,4.49l3.54,5.18h-3.73l-3.11-4.64h-2.51v4.64h-3.19v-14.49ZM141.2,49.47c1.55,0,2.44-.83,2.44-2.05v-.04c0-1.37-.95-2.07-2.51-2.07h-3.17v4.16h3.23Z"/>
            <path class="cls-10" d="M154.82,42.32h2.94l6.21,14.6h-3.33l-1.33-3.25h-6.13l-1.33,3.25h-3.25l6.21-14.6ZM158.18,50.85l-1.93-4.7-1.93,4.7h3.85Z"/>
            <path class="cls-10" d="M164.74,49.72v-.04c0-4.12,3.11-7.5,7.56-7.5,2.73,0,4.37.91,5.71,2.24l-2.03,2.34c-1.12-1.02-2.26-1.64-3.71-1.64-2.44,0-4.2,2.03-4.2,4.51v.04c0,2.49,1.72,4.56,4.2,4.56,1.66,0,2.67-.66,3.81-1.7l2.03,2.05c-1.49,1.59-3.15,2.59-5.94,2.59-4.27,0-7.43-3.29-7.43-7.45Z"/>
            <path class="cls-10" d="M184.63,51.21l-5.57-8.78h3.73l3.46,5.82,3.52-5.82h3.62l-5.57,8.72v5.78h-3.19v-5.71Z"/>
            <path class="cls-10" d="M201.79,42.43h3.19v11.6h7.23v2.9h-10.42v-14.49Z"/>
            <path class="cls-10" d="M219.68,42.32h2.94l6.21,14.6h-3.33l-1.33-3.25h-6.13l-1.33,3.25h-3.25l6.21-14.6ZM223.04,50.85l-1.93-4.7-1.93,4.7h3.85Z"/>
            <path class="cls-10" d="M231.17,42.43h6.73c1.66,0,2.96.46,3.79,1.28.66.66.99,1.47.99,2.46v.04c0,1.64-.87,2.55-1.91,3.13,1.68.64,2.71,1.62,2.71,3.56v.04c0,2.65-2.15,3.98-5.42,3.98h-6.9v-14.49ZM239.51,46.71c0-.95-.75-1.49-2.09-1.49h-3.15v3.06h2.94c1.41,0,2.3-.46,2.3-1.53v-.04ZM237.96,50.94h-3.69v3.19h3.79c1.41,0,2.26-.5,2.26-1.57v-.04c0-.97-.72-1.57-2.36-1.57Z"/>
          </g>
        </g>
      </g>
    </g>
  </g>
</svg>