<?xml version="1.0" encoding="UTF-8"?>
<svg xmlns="http://www.w3.org/2000/svg" xmlns:xlink="http://www.w3.org/1999/xlink" viewBox="0 0 263.86 56.72">
  <defs>
    <style>
      .cls-1, .cls-2, .cls-3 {
        fill: none;
      }

      .cls-2, .cls-3 {
        stroke: #00cdff;
        stroke-linecap: round;
        stroke-linejoin: round;
        stroke-width: .6px;
      }

      .cls-4 {
        isolation: isolate;
      }

      .cls-5 {
        fill: #00cdff;
      }

      .cls-6 {
        fill: maroon;
      }

      .cls-7 {
        fill: #024066;
      }

      .cls-8 {
        fill: #595a5c;
      }

      .cls-9 {
        clip-path: url(#clippath);
      }

      .cls-3 {
        mix-blend-mode: darken;
      }
    </style>
    <clipPath id="clippath">
      <path class="cls-1" d="M33.93,14.46c-2.38-4.09-5.79-7.19-9.7-9.22l-10.93,21.8,11.95,20.47c11.52-6.73,15.41-21.52,8.69-33.05Z"/>
    </clipPath>
  </defs>
  <g class="cls-4">
    <g id="Layer_2" data-name="Layer 2">
      <g id="Layer_1-2" data-name="Layer 1">
        <g>
          <g>
            <g>
              <path class="cls-6" d="M.88,5.78C12.4-.95,27.2,2.94,33.93,14.46c6.73,11.52,2.84,26.32-8.69,33.05L.88,5.78Z"/>
              <path class="cls-5" d="M26.85,0c14.78,7.41,20.76,25.41,13.34,40.19-7.41,14.78-25.41,20.76-40.19,13.34L26.85,0Z"/>
            </g>
            <path class="cls-1" d="M33.93,14.46c-2.38-4.09-5.79-7.19-9.7-9.22l-10.93,21.8,11.95,20.47c11.52-6.73,15.41-21.52,8.69-33.05Z"/>
            <g class="cls-9">
              <g>
                <path class="cls-7" d="M33.93,14.46c-2.38-4.09-5.79-7.19-9.7-9.22l-10.93,21.8,11.95,20.47c11.52-6.73,15.41-21.52,8.69-33.05Z"/>
                <line class="cls-3" x1="31.89" y1="47.02" x2="26.42" y2="44.97"/>
                <g>
                  <line class="cls-2" x1="26.09" y1="13.71" x2="22.81" y2="3.55"/>
                  <line class="cls-2" x1="26.09" y1="13.71" x2="29.21" y2="5.87"/>
                  <line class="cls-2" x1="26.09" y1="13.71" x2="20.01" y2="9.44"/>
                  <line class="cls-2" x1="26.09" y1="13.71" x2="36.73" y2="14.65"/>
                  <line class="cls-2" x1="26.09" y1="13.71" x2="32.36" y2="23.32"/>
                  <line class="cls-2" x1="38.88" y1="15.8" x2="32.36" y2="23.32"/>
                  <line class="cls-2" x1="41.3" y1="24" x2="32.36" y2="23.32"/>
                  <line class="cls-2" x1="32.57" y1="29.26" x2="32.36" y2="23.32"/>
                  <line class="cls-2" x1="26.32" y1="27.89" x2="32.36" y2="23.32"/>
                  <line class="cls-2" x1="26.32" y1="27.89" x2="32.57" y2="29.26"/>
                  <line class="cls-2" x1="39.62" y1="22.74" x2="32.57" y2="29.26"/>
                  <line class="cls-2" x1="40.62" y1="29.73" x2="32.57" y2="29.26"/>
                  <line class="cls-2" x1="32.63" y1="35.36" x2="32.57" y2="29.26"/>
                  <line class="cls-2" x1="32.63" y1="35.36" x2="38.72" y2="30.1"/>
                  <line class="cls-2" x1="32.63" y1="35.36" x2="38.78" y2="34.78"/>
                  <line class="cls-2" x1="32.63" y1="35.36" x2="37.09" y2="39.14"/>
                  <line class="cls-2" x1="32.63" y1="35.36" x2="32.52" y2="41.24"/>
                  <line class="cls-2" x1="32.63" y1="35.36" x2="25.79" y2="36.3"/>
                  <line class="cls-2" x1="26.32" y1="27.89" x2="32.63" y2="35.36"/>
                  <line class="cls-2" x1="26.32" y1="27.89" x2="25.79" y2="36.35"/>
                  <line class="cls-2" x1="26.32" y1="27.89" x2="19.33" y2="33.78"/>
                  <line class="cls-2" x1="25.79" y1="36.3" x2="19.33" y2="33.78"/>
                  <line class="cls-2" x1="25.27" y1="40.19" x2="19.33" y2="33.78"/>
                  <line class="cls-2" x1="18.17" y1="37.2" x2="19.33" y2="33.78"/>
                  <line class="cls-2" x1="11.5" y1="34.62" x2="19.33" y2="33.78"/>
                  <line class="cls-2" x1="13.07" y1="28.63" x2="19.33" y2="33.78"/>
                  <line class="cls-2" x1="25.79" y1="36.3" x2="25.27" y2="40.19"/>
                  <line class="cls-2" x1="25.79" y1="36.3" x2="32.52" y2="41.24"/>
                  <line class="cls-2" x1="32.47" y1="41.14" x2="25.27" y2="40.19"/>
                  <line class="cls-2" x1="32.47" y1="41.14" x2="26.42" y2="44.97"/>
                  <line class="cls-2" x1="26.42" y1="51.33" x2="26.42" y2="44.97"/>
                  <line class="cls-2" x1="21.43" y1="44.76" x2="26.42" y2="44.97"/>
                  <line class="cls-2" x1="26.42" y1="45.03" x2="25.27" y2="40.19"/>
                  <line class="cls-2" x1="22.64" y1="46.18" x2="25.27" y2="40.19"/>
                  <line class="cls-2" x1="18.75" y1="44.29" x2="25.27" y2="40.19"/>
                  <line class="cls-2" x1="18.38" y1="39.09" x2="25.27" y2="40.19"/>
                  <line class="cls-2" x1="26.32" y1="27.89" x2="19.49" y2="25.63"/>
                  <line class="cls-2" x1="19.33" y1="33.78" x2="19.49" y2="25.63"/>
                  <line class="cls-2" x1="9.08" y1="28.68" x2="19.49" y2="25.63"/>
                  <line class="cls-2" x1="9.24" y1="23.84" x2="19.49" y2="25.63"/>
                  <line class="cls-2" x1="11.34" y1="19.64" x2="19.49" y2="25.63"/>
                  <line class="cls-2" x1="22.17" y1="20.59" x2="19.49" y2="25.63"/>
                  <line class="cls-2" x1="19.17" y1="16.91" x2="19.49" y2="25.63"/>
                  <line class="cls-2" x1="19.17" y1="16.91" x2="15.39" y2="21.64"/>
                  <line class="cls-2" x1="19.17" y1="16.91" x2="19.17" y2="11.12"/>
                  <line class="cls-2" x1="19.17" y1="16.91" x2="15.23" y2="15.43"/>
                  <line class="cls-2" x1="19.17" y1="16.91" x2="21.85" y2="18.96"/>
                  <line class="cls-2" x1="19.17" y1="16.91" x2="22.22" y2="20.64"/>
                  <line class="cls-2" x1="21.8" y1="18.85" x2="22.22" y2="20.64"/>
                  <line class="cls-2" x1="26.09" y1="13.71" x2="26.32" y2="27.89"/>
                  <line class="cls-2" x1="26.09" y1="13.71" x2="19.22" y2="16.91"/>
                  <line class="cls-2" x1="26.09" y1="13.71" x2="21.8" y2="18.9"/>
                  <line class="cls-2" x1="26.09" y1="13.71" x2="22.17" y2="20.59"/>
                </g>
              </g>
            </g>
          </g>
          <g>
            <path class="cls-8" d="M55.42,10.29h6.19c4.99,0,8.44,3.43,8.44,7.9v.04c0,4.47-3.45,7.94-8.44,7.94h-6.19v-15.88ZM58.91,13.44v9.57h2.7c2.86,0,4.79-1.93,4.79-4.74v-.04c0-2.81-1.93-4.79-4.79-4.79h-2.7Z"/>
            <path class="cls-8" d="M77.59,10.18h3.22l6.81,16h-3.65l-1.45-3.56h-6.72l-1.45,3.56h-3.56l6.81-16ZM81.27,19.52l-2.11-5.15-2.11,5.15h4.22Z"/>
            <path class="cls-8" d="M91.85,13.51h-4.83v-3.22h13.16v3.22h-4.83v12.66h-3.49v-12.66Z"/>
            <path class="cls-8" d="M106.37,10.18h3.22l6.81,16h-3.65l-1.45-3.56h-6.72l-1.45,3.56h-3.56l6.81-16ZM110.05,19.52l-2.11-5.15-2.11,5.15h4.22Z"/>
            <path class="cls-8" d="M131.34,10.18h3.22l6.81,16h-3.65l-1.45-3.56h-6.72l-1.45,3.56h-3.56l6.81-16ZM135.01,19.52l-2.11-5.15-2.11,5.15h4.22Z"/>
            <path class="cls-8" d="M143.94,10.29h3.22l7.44,9.78v-9.78h3.45v15.88h-2.97l-7.69-10.1v10.1h-3.45v-15.88Z"/>
            <path class="cls-8" d="M161.98,10.29h6.19c4.99,0,8.44,3.43,8.44,7.9v.04c0,4.47-3.45,7.94-8.44,7.94h-6.19v-15.88ZM165.47,13.44v9.57h2.7c2.86,0,4.79-1.93,4.79-4.74v-.04c0-2.81-1.93-4.79-4.79-4.79h-2.7Z"/>
            <path class="cls-8" d="M55.42,33.28h6.19c4.99,0,8.44,3.43,8.44,7.9v.04c0,4.47-3.45,7.94-8.44,7.94h-6.19v-15.88ZM58.91,36.43v9.57h2.7c2.86,0,4.79-1.93,4.79-4.74v-.04c0-2.81-1.93-4.79-4.79-4.79h-2.7Z"/>
            <path class="cls-8" d="M73.28,33.28h11.98v3.11h-8.51v3.22h7.49v3.11h-7.49v3.33h8.62v3.11h-12.09v-15.88Z"/>
            <path class="cls-8" d="M88.6,33.28h3.77l4.17,6.72,4.17-6.72h3.77v15.88h-3.47v-10.37l-4.47,6.78h-.09l-4.42-6.72v10.3h-3.43v-15.88Z"/>
            <path class="cls-8" d="M107.71,41.26v-.04c0-4.52,3.56-8.21,8.46-8.21s8.42,3.65,8.42,8.17v.04c0,4.52-3.56,8.21-8.46,8.21s-8.42-3.65-8.42-8.17ZM120.94,41.26v-.04c0-2.72-2-4.99-4.81-4.99s-4.76,2.22-4.76,4.95v.04c0,2.72,2,4.99,4.81,4.99s4.76-2.22,4.76-4.95Z"/>
            <path class="cls-8" d="M127.12,41.26v-.04c0-4.52,3.4-8.21,8.28-8.21,3,0,4.79,1,6.26,2.45l-2.22,2.56c-1.23-1.11-2.47-1.79-4.06-1.79-2.68,0-4.61,2.22-4.61,4.95v.04c0,2.72,1.88,4.99,4.61,4.99,1.81,0,2.93-.73,4.17-1.86l2.22,2.25c-1.63,1.75-3.45,2.84-6.51,2.84-4.67,0-8.15-3.61-8.15-8.17Z"/>
            <path class="cls-8" d="M144.68,33.28h7.26c2.02,0,3.58.57,4.63,1.61.89.88,1.36,2.13,1.36,3.63v.05c0,2.56-1.38,4.17-3.4,4.92l3.88,5.67h-4.08l-3.4-5.08h-2.75v5.08h-3.49v-15.88ZM151.72,40.99c1.7,0,2.68-.91,2.68-2.25v-.05c0-1.5-1.04-2.27-2.75-2.27h-3.47v4.56h3.54Z"/>
            <path class="cls-8" d="M166.65,33.16h3.22l6.81,16h-3.65l-1.45-3.56h-6.72l-1.45,3.56h-3.56l6.81-16ZM170.33,42.51l-2.11-5.15-2.11,5.15h4.22Z"/>
            <path class="cls-8" d="M177.53,41.26v-.04c0-4.52,3.4-8.21,8.28-8.21,3,0,4.79,1,6.26,2.45l-2.22,2.56c-1.23-1.11-2.47-1.79-4.06-1.79-2.68,0-4.61,2.22-4.61,4.95v.04c0,2.72,1.88,4.99,4.61,4.99,1.81,0,2.93-.73,4.17-1.86l2.22,2.25c-1.63,1.75-3.45,2.84-6.51,2.84-4.67,0-8.15-3.61-8.15-8.17Z"/>
            <path class="cls-8" d="M199.34,42.9l-6.1-9.62h4.08l3.79,6.38,3.86-6.38h3.97l-6.1,9.55v6.33h-3.49v-6.26Z"/>
            <path class="cls-8" d="M218.15,33.28h3.49v12.71h7.92v3.18h-11.41v-15.88Z"/>
            <path class="cls-8" d="M237.76,33.16h3.22l6.81,16h-3.65l-1.45-3.56h-6.72l-1.45,3.56h-3.56l6.81-16ZM241.44,42.51l-2.11-5.15-2.11,5.15h4.22Z"/>
            <path class="cls-8" d="M250.36,33.28h7.37c1.82,0,3.24.5,4.15,1.41.73.73,1.09,1.61,1.09,2.7v.04c0,1.79-.95,2.79-2.09,3.43,1.84.7,2.97,1.77,2.97,3.9v.05c0,2.9-2.36,4.36-5.94,4.36h-7.56v-15.88ZM259.5,37.97c0-1.04-.82-1.63-2.29-1.63h-3.45v3.36h3.22c1.54,0,2.52-.5,2.52-1.68v-.04ZM257.8,42.6h-4.04v3.49h4.15c1.54,0,2.47-.54,2.47-1.72v-.05c0-1.07-.79-1.72-2.59-1.72Z"/>
          </g>
        </g>
      </g>
    </g>
  </g>
</svg>