<?xml version="1.0" encoding="UTF-8"?>
<svg xmlns="http://www.w3.org/2000/svg" xmlns:xlink="http://www.w3.org/1999/xlink" viewBox="0 0 219.05 48.16">
  <defs>
    <style>
      .cls-1 {
        fill: none;
      }

      .cls-2 {
        mix-blend-mode: darken;
      }

      .cls-2, .cls-3, .cls-4, .cls-5 {
        fill: #fff;
      }

      .cls-3 {
        opacity: .35;
      }

      .cls-4 {
        opacity: .6;
      }

      .cls-6 {
        isolation: isolate;
      }

      .cls-7 {
        clip-path: url(#clippath);
      }
    </style>
    <clipPath id="clippath">
      <path class="cls-1" d="M28.38,12.81c-1.99-3.42-4.85-6.01-8.12-7.72l-9.15,18.24,10,17.13c9.64-5.63,12.89-18,7.27-27.65Z"/>
    </clipPath>
  </defs>
  <g class="cls-6">
    <g id="Layer_2" data-name="Layer 2">
      <g id="Layer_1-2" data-name="Layer 1">
        <g>
          <g>
            <g>
              <path class="cls-4" d="M.73,5.55C10.38-.08,22.75,3.17,28.38,12.81c5.63,9.64,2.37,22.02-7.27,27.65L.73,5.55Z"/>
              <path class="cls-3" d="M22.46.71c12.37,6.2,17.36,21.26,11.16,33.62S12.37,51.7,0,45.5L22.46.71Z"/>
            </g>
            <path class="cls-1" d="M28.38,12.81c-1.99-3.42-4.85-6.01-8.12-7.72l-9.15,18.24,10,17.13c9.64-5.63,12.89-18,7.27-27.65Z"/>
            <g class="cls-7">
              <g>
                <path class="cls-5" d="M28.38,12.81c-1.99-3.42-4.85-6.01-8.12-7.72l-9.15,18.24,10,17.13c9.64-5.63,12.89-18,7.27-27.65Z"/>
                <path class="cls-2" d="M26.68,40.3s-.06,0-.09-.02l-4.57-1.71c-.13-.05-.19-.19-.15-.32.05-.13.19-.19.32-.15l4.57,1.71c.13.05.19.19.15.32-.04.1-.13.16-.23.16Z"/>
                <g>
                  <path d="M21.82,12.43c-.11,0-.2-.07-.24-.17l-2.74-8.5c-.04-.13.03-.27.16-.32.13-.04.27.03.31.16l2.74,8.5c.04.13-.03.27-.16.32-.03,0-.05.01-.08.01Z"/>
                  <path d="M21.82,12.43s-.06,0-.09-.02c-.13-.05-.19-.2-.14-.33l2.61-6.56c.05-.13.2-.19.32-.14.13.05.19.2.14.33l-2.61,6.56c-.04.1-.13.16-.23.16Z"/>
                  <path d="M21.82,12.43s-.1-.01-.14-.04l-5.08-3.57c-.11-.08-.14-.24-.06-.35.08-.11.24-.14.35-.06l5.08,3.57c.11.08.14.24.06.35-.05.07-.13.11-.2.11Z"/>
                  <path d="M30.72,13.22s-.02,0-.02,0l-8.9-.79c-.14-.01-.24-.13-.23-.27s.14-.24.27-.23l8.9.79c.14.01.24.13.23.27-.01.13-.12.23-.25.23Z"/>
                  <path d="M27.07,20.47c-.08,0-.16-.04-.21-.11l-5.25-8.04c-.08-.12-.04-.27.07-.35.12-.08.27-.04.35.07l5.25,8.04c.08.12.04.27-.07.35-.04.03-.09.04-.14.04Z"/>
                  <path d="M27.07,20.47c-.06,0-.12-.02-.16-.06-.1-.09-.12-.25-.03-.35l5.45-6.29c.09-.1.25-.11.35-.02.1.09.12.25.03.35l-5.45,6.29c-.05.06-.12.09-.19.09Z"/>
                  <path d="M34.55,21.04s-.01,0-.02,0l-7.48-.57c-.14-.01-.24-.13-.23-.27.01-.14.14-.25.27-.23l7.48.57c.14.01.24.13.23.27-.01.13-.12.23-.25.23Z"/>
                  <path d="M27.25,25.44c-.13,0-.25-.11-.25-.24l-.18-4.97c0-.14.1-.25.24-.26.13-.01.25.1.26.24l.18,4.97c0,.14-.1.25-.24.26h0Z"/>
                  <path d="M22.02,24.3c-.08,0-.15-.03-.2-.1-.08-.11-.06-.27.05-.35l5.06-3.83c.11-.08.27-.06.35.05.08.11.06.27-.05.35l-5.06,3.83s-.1.05-.15.05Z"/>
                  <path d="M27.25,25.44s-.04,0-.05,0l-5.23-1.14c-.14-.03-.22-.16-.19-.3.03-.13.16-.22.3-.19l5.23,1.14c.14.03.22.16.19.3-.03.12-.13.2-.24.2Z"/>
                  <path d="M27.25,25.44c-.07,0-.13-.03-.18-.08-.09-.1-.09-.26.01-.35l5.89-5.45c.1-.09.26-.09.35.01.09.1.09.26-.01.35l-5.89,5.45s-.11.07-.17.07Z"/>
                  <path d="M33.98,25.84h-.01l-6.73-.4c-.14,0-.24-.13-.23-.26,0-.14.13-.24.26-.24l6.73.4c.14,0,.24.13.23.26,0,.13-.12.24-.25.24Z"/>
                  <path d="M27.29,30.54c-.14,0-.25-.11-.25-.25l-.04-5.1c0-.14.11-.25.25-.25h0c.14,0,.25.11.25.25l.04,5.1c0,.14-.08.25-.25.25Z"/>
                  <path d="M27.29,30.54c-.07,0-.14-.03-.19-.09-.09-.1-.08-.26.03-.35l5.1-4.4c.1-.09.26-.08.35.03s.08.26-.03.35l-5.1,4.4s-.1.06-.16.06Z"/>
                  <path d="M27.29,30.54c-.13,0-.24-.1-.25-.23-.01-.14.09-.26.23-.27l5.14-.48c.14-.02.26.09.27.23.01.14-.09.26-.23.27l-5.14.48s-.02,0-.02,0Z"/>
                  <path d="M31.03,33.71c-.06,0-.11-.02-.16-.06l-3.74-3.17c-.11-.09-.12-.25-.03-.35.09-.1.25-.12.35-.03l3.74,3.17c.11.09.12.25.03.35-.05.06-.12.09-.19.09Z"/>
                  <path d="M27.21,35.47h0c-.14,0-.25-.12-.25-.25l.09-4.92c0-.14.11-.25.25-.25h0c.14,0,.25.12.25.25l-.09,4.92c0,.14-.11.25-.25.25Z"/>
                  <path d="M21.58,31.33c-.12,0-.23-.09-.25-.22-.02-.14.08-.26.21-.28l5.72-.79c.13-.02.26.08.28.21s-.08.26-.21.28l-5.72.79s-.02,0-.03,0Z"/>
                  <path d="M27.29,30.54c-.07,0-.14-.03-.19-.09l-5.28-6.24c-.09-.11-.08-.26.03-.35.11-.09.26-.08.35.03l5.28,6.24c.09.11.08.26-.03.35-.05.04-.1.06-.16.06Z"/>
                  <path d="M21.58,31.38h-.02c-.14,0-.24-.13-.23-.27l.44-7.08c0-.14.13-.24.27-.23.14,0,.24.13.23.27l-.44,7.08c0,.13-.12.23-.25.23Z"/>
                  <path d="M16.17,29.22c-.07,0-.14-.03-.19-.09-.09-.11-.08-.26.03-.35l5.85-4.92c.11-.09.26-.08.35.03.09.11.08.26-.03.35l-5.85,4.92s-.1.06-.16.06Z"/>
                  <path d="M21.58,31.33s-.06,0-.09-.02l-5.41-2.11c-.13-.05-.19-.19-.14-.32s.2-.19.32-.14l5.41,2.11c.13.05.19.19.14.32-.04.1-.13.16-.23.16Z"/>
                  <path d="M21.14,34.59c-.07,0-.13-.03-.18-.08l-4.97-5.36c-.09-.1-.09-.26.01-.35.1-.09.26-.09.35.01l4.97,5.36c.09.1.09.26-.01.35-.05.04-.11.07-.17.07Z"/>
                  <path d="M15.2,32.08s-.05,0-.08-.01c-.13-.04-.2-.19-.16-.32l.97-2.86c.04-.13.19-.2.32-.16.13.04.2.19.16.32l-.97,2.86c-.04.1-.13.17-.24.17Z"/>
                  <path d="M9.62,29.92c-.13,0-.23-.09-.25-.22-.01-.14.08-.26.22-.28l6.55-.7c.13-.01.26.08.28.22.01.14-.08.26-.22.28l-6.55.7s-.02,0-.03,0Z"/>
                  <path d="M16.17,29.22c-.06,0-.11-.02-.16-.06l-5.23-4.31c-.11-.09-.12-.25-.03-.35s.25-.12.35-.03l5.23,4.31c.11.09.12.25.03.35-.05.06-.12.09-.19.09Z"/>
                  <path d="M21.14,34.59s-.02,0-.03,0c-.14-.02-.23-.14-.21-.28l.44-3.25c.02-.14.14-.23.28-.21.14.02.23.14.21.28l-.44,3.25c-.02.13-.12.22-.25.22Z"/>
                  <path d="M27.21,35.47c-.05,0-.1-.02-.15-.05l-5.63-4.13c-.11-.08-.14-.24-.05-.35.08-.11.24-.13.35-.05l5.63,4.13c.11.08.14.24.05.35-.05.07-.12.1-.2.1Z"/>
                  <path d="M27.16,35.38s-.02,0-.03,0l-6.02-.79c-.14-.02-.23-.14-.22-.28.02-.14.15-.23.28-.22l6.02.79c.14.02.23.14.22.28-.02.13-.12.22-.25.22Z"/>
                  <path d="M22.1,38.59c-.08,0-.16-.04-.21-.12-.07-.12-.04-.27.08-.34l5.06-3.21c.12-.08.27-.04.34.08.07.12.04.27-.08.34l-5.06,3.21s-.09.04-.13.04Z"/>
                  <path d="M22.1,43.91c-.14,0-.25-.11-.25-.25v-5.32c0-.14.11-.25.25-.25s.25.11.25.25v5.32c0,.14-.11.25-.25.25Z"/>
                  <path d="M22.1,38.59h-.01l-4.18-.18c-.14,0-.24-.12-.24-.26,0-.14.1-.26.26-.24l4.18.18c.14,0,.24.12.24.26,0,.13-.12.24-.25.24Z"/>
                  <path d="M22.1,38.63c-.11,0-.22-.08-.24-.19l-.97-4.05c-.03-.13.05-.27.19-.3.13-.04.27.05.3.18l.97,4.05c.03.13-.05.27-.19.3-.02,0-.04,0-.06,0Z"/>
                  <path d="M18.94,39.6s-.07,0-.1-.02c-.13-.05-.18-.2-.13-.33l2.2-5.01c.06-.13.2-.18.33-.13.13.05.18.2.13.33l-2.2,5.01c-.04.09-.13.15-.23.15Z"/>
                  <path d="M15.68,38.02c-.08,0-.16-.04-.21-.12-.07-.12-.04-.27.08-.34l5.45-3.43c.12-.07.27-.04.34.08.07.12.04.27-.08.34l-5.45,3.43s-.09.04-.13.04Z"/>
                  <path d="M21.14,34.59s-.03,0-.04,0l-5.76-.92c-.14-.02-.23-.15-.21-.29.02-.14.15-.23.29-.21l5.76.92c.14.02.23.15.21.29-.02.12-.13.21-.25.21Z"/>
                  <path d="M22.02,24.3s-.05,0-.08-.01l-5.72-1.89c-.13-.04-.2-.18-.16-.32.04-.13.18-.2.32-.16l5.72,1.89c.13.04.2.18.16.32-.03.11-.13.17-.24.17Z"/>
                  <path d="M16.17,29.22h0c-.14,0-.25-.12-.25-.25l.13-6.82c0-.14.12-.27.25-.25.14,0,.25.12.25.25l-.13,6.82c0,.14-.11.25-.25.25Z"/>
                  <path d="M7.59,24.96c-.11,0-.21-.07-.24-.18-.04-.13.04-.27.17-.31l8.71-2.55c.13-.04.27.04.31.17.04.13-.04.27-.17.31l-8.71,2.55s-.05,0-.07,0Z"/>
                  <path d="M16.3,22.41s-.03,0-.04,0l-8.57-1.5c-.14-.02-.23-.15-.2-.29s.15-.23.29-.2l8.57,1.5c.14.02.23.15.2.29-.02.12-.13.21-.25.21Z"/>
                  <path d="M16.3,22.41c-.05,0-.1-.02-.15-.05l-6.82-5.01c-.11-.08-.14-.24-.05-.35s.24-.13.35-.05l6.82,5.01c.11.08.14.24.05.35-.05.07-.12.1-.2.1Z"/>
                  <path d="M16.3,22.41s-.08,0-.12-.03c-.12-.06-.17-.22-.1-.34l2.24-4.22c.06-.12.22-.17.34-.1.12.06.17.22.1.34l-2.24,4.22c-.04.08-.13.13-.22.13Z"/>
                  <path d="M16.3,22.41c-.13,0-.25-.11-.25-.24l-.26-7.3c0-.14.1-.25.24-.26.12,0,.25.1.26.24l.26,7.3c0,.14-.1.25-.24.26h0Z"/>
                  <path d="M12.87,19.06c-.06,0-.11-.02-.16-.05-.11-.09-.12-.24-.04-.35l3.17-3.96c.09-.11.24-.12.35-.04.11.09.12.24.04.35l-3.17,3.96c-.05.06-.12.09-.2.09Z"/>
                  <path d="M16.04,15.11c-.14,0-.25-.11-.25-.25v-4.84c0-.14.11-.25.25-.25s.25.11.25.25v4.84c0,.14-.11.25-.25.25Z"/>
                  <path d="M16.04,15.11s-.06,0-.09-.02l-3.3-1.23c-.13-.05-.2-.19-.15-.32.05-.13.19-.19.32-.15l3.3,1.23c.13.05.2.19.15.32-.04.1-.13.16-.23.16Z"/>
                  <path d="M18.28,16.82c-.05,0-.11-.02-.15-.05l-2.24-1.71c-.11-.08-.13-.24-.05-.35.08-.11.24-.13.35-.05l2.24,1.71c.11.08.13.24.05.35-.05.06-.12.1-.2.1Z"/>
                  <path d="M18.59,18.23c-.07,0-.14-.03-.19-.09l-2.55-3.12c-.09-.11-.07-.26.04-.35s.26-.07.35.04l2.55,3.12c.09.11.07.26-.04.35-.05.04-.1.06-.16.06Z"/>
                  <path d="M18.59,18.23c-.11,0-.22-.08-.24-.19l-.35-1.5c-.03-.13.05-.27.19-.3.14-.03.27.05.3.19l.35,1.5c.03.13-.05.27-.19.3-.02,0-.04,0-.06,0Z"/>
                  <path d="M22.02,24.3c-.14,0-.25-.11-.25-.25l-.19-11.87c0-.14.11-.25.25-.25.12-.01.25.11.25.25l.19,11.87c0,.14-.11.25-.25.25h0Z"/>
                  <path d="M16.08,15.11c-.09,0-.18-.05-.23-.14-.06-.12,0-.27.12-.33l5.74-2.68c.12-.06.27,0,.33.12s0,.27-.12.33l-5.74,2.68s-.07.02-.11.02Z"/>
                  <path d="M18.24,16.78c-.06,0-.11-.02-.16-.06-.11-.09-.12-.25-.03-.35l3.59-4.35c.09-.11.25-.12.35-.03.11.09.12.25.03.35l-3.59,4.35c-.05.06-.12.09-.19.09Z"/>
                  <path d="M18.54,18.18s-.08-.01-.12-.03c-.12-.07-.16-.22-.09-.34l3.28-5.76c.07-.12.22-.16.34-.09.12.07.16.22.09.34l-3.28,5.76c-.05.08-.13.13-.22.13Z"/>
                </g>
              </g>
            </g>
          </g>
          <rect class="cls-5" x="44.68" y="12.19" width="174.38" height=".68"/>
          <g>
            <polygon class="cls-5" points="46.85 1.62 44.61 1.62 44.61 .13 50.71 .13 50.71 1.62 48.47 1.62 48.47 7.5 46.85 7.5 46.85 1.62"/>
            <polygon class="cls-5" points="52.32 .13 53.94 .13 53.94 3.04 56.93 3.04 56.93 .13 58.55 .13 58.55 7.5 56.93 7.5 56.93 4.54 53.94 4.54 53.94 7.5 52.32 7.5 52.32 .13"/>
            <polygon class="cls-5" points="60.69 .13 66.25 .13 66.25 1.57 62.3 1.57 62.3 3.06 65.77 3.06 65.77 4.51 62.3 4.51 62.3 6.05 66.3 6.05 66.3 7.5 60.69 7.5 60.69 .13"/>
            <g>
              <path class="cls-5" d="M71.52,4.34V.13h1.62v4.17c0,1.2.6,1.82,1.59,1.82s1.59-.6,1.59-1.77V.13h1.62v4.16c0,2.23-1.25,3.33-3.23,3.33s-3.19-1.11-3.19-3.27"/>
              <polygon class="cls-5" points="79.96 .13 81.46 .13 84.91 4.66 84.91 .13 86.51 .13 86.51 7.5 85.13 7.5 81.56 2.81 81.56 7.5 79.96 7.5 79.96 .13"/>
              <rect class="cls-5" x="88.72" y=".13" width="1.62" height="7.37"/>
              <polygon class="cls-5" points="91.92 .13 93.71 .13 95.64 5.32 97.56 .13 99.31 .13 96.33 7.55 94.9 7.55 91.92 .13"/>
              <polygon class="cls-5" points="100.82 .13 106.37 .13 106.37 1.57 102.43 1.57 102.43 3.06 105.9 3.06 105.9 4.51 102.43 4.51 102.43 6.05 106.43 6.05 106.43 7.5 100.82 7.5 100.82 .13"/>
              <path class="cls-5" d="M108.24.13h3.37c.94,0,1.66.26,2.15.75.41.41.63.99.63,1.68v.02c0,1.19-.64,1.94-1.58,2.28l1.8,2.63h-1.9l-1.58-2.36h-1.27v2.36h-1.62V.13ZM111.5,3.71c.79,0,1.24-.42,1.24-1.04v-.02c0-.69-.48-1.05-1.27-1.05h-1.61v2.12h1.64Z"/>
              <path class="cls-5" d="M115.71,6.42l.96-1.15c.66.55,1.36.89,2.2.89.66,0,1.06-.26,1.06-.69v-.02c0-.41-.25-.62-1.48-.94-1.48-.38-2.44-.79-2.44-2.25v-.02c0-1.34,1.07-2.22,2.58-2.22,1.07,0,1.99.34,2.74.94l-.84,1.22c-.65-.45-1.3-.73-1.92-.73s-.95.28-.95.64v.02c0,.48.32.64,1.59.97,1.49.39,2.34.93,2.34,2.21v.02c0,1.46-1.12,2.28-2.7,2.28-1.12,0-2.24-.39-3.13-1.18"/>
              <rect class="cls-5" x="123.39" y=".13" width="1.62" height="7.37"/>
              <polygon class="cls-5" points="128.94 1.62 126.7 1.62 126.7 .13 132.8 .13 132.8 1.62 130.56 1.62 130.56 7.5 128.94 7.5 128.94 1.62"/>
              <polygon class="cls-5" points="136.49 4.59 133.66 .13 135.55 .13 137.31 3.08 139.1 .13 140.94 .13 138.11 4.56 138.11 7.49 136.49 7.49 136.49 4.59"/>
              <path class="cls-5" d="M145.52,3.83v-.02c0-2.09,1.65-3.81,3.93-3.81s3.91,1.7,3.91,3.79v.02c0,2.1-1.65,3.81-3.93,3.81s-3.9-1.69-3.9-3.79M151.66,3.83v-.02c0-1.26-.93-2.32-2.23-2.32s-2.21,1.03-2.21,2.29v.02c0,1.26.93,2.32,2.23,2.32s2.21-1.03,2.21-2.3"/>
              <polygon class="cls-5" points="155.16 .13 160.77 .13 160.77 1.6 156.78 1.6 156.78 3.17 160.3 3.17 160.3 4.64 156.78 4.64 156.78 7.5 155.16 7.5 155.16 .13"/>
              <path class="cls-5" d="M165.63,3.83v-.02c0-2.09,1.58-3.81,3.84-3.81,1.39,0,2.22.46,2.91,1.14l-1.03,1.19c-.57-.52-1.15-.83-1.88-.83-1.24,0-2.14,1.03-2.14,2.29v.02c0,1.26.87,2.32,2.14,2.32.84,0,1.36-.34,1.94-.86l1.03,1.04c-.76.81-1.6,1.32-3.02,1.32-2.17,0-3.78-1.67-3.78-3.79"/>
              <polygon class="cls-5" points="174.1 .13 175.72 .13 175.72 3.04 178.71 3.04 178.71 .13 180.33 .13 180.33 7.5 178.71 7.5 178.71 4.54 175.72 4.54 175.72 7.5 174.1 7.5 174.1 .13"/>
              <rect class="cls-5" x="182.54" y=".13" width="1.62" height="7.37"/>
              <path class="cls-5" d="M186.04,3.83v-.02c0-2.09,1.58-3.81,3.84-3.81,1.39,0,2.22.46,2.91,1.14l-1.03,1.19c-.57-.52-1.15-.83-1.88-.83-1.24,0-2.14,1.03-2.14,2.29v.02c0,1.26.87,2.32,2.14,2.32.84,0,1.36-.34,1.94-.86l1.03,1.04c-.76.81-1.6,1.32-3.02,1.32-2.17,0-3.78-1.67-3.78-3.79"/>
              <path class="cls-5" d="M197.03.07h1.49l3.16,7.42h-1.69l-.67-1.65h-3.12l-.67,1.65h-1.65l3.16-7.42ZM198.74,4.41l-.98-2.39-.98,2.39h1.96Z"/>
              <path class="cls-5" d="M202.39,3.83v-.02c0-2.09,1.63-3.81,3.86-3.81,1.33,0,2.13.36,2.89,1.01l-1.02,1.23c-.57-.47-1.07-.75-1.93-.75-1.18,0-2.12,1.04-2.12,2.29v.02c0,1.35.93,2.34,2.23,2.34.59,0,1.12-.15,1.53-.44v-1.05h-1.63v-1.4h3.2v3.2c-.76.64-1.8,1.17-3.15,1.17-2.3,0-3.87-1.61-3.87-3.79"/>
              <path class="cls-5" d="M211.01,3.83v-.02c0-2.09,1.65-3.81,3.93-3.81s3.91,1.7,3.91,3.79v.02c0,2.1-1.65,3.81-3.93,3.81s-3.91-1.69-3.91-3.79M217.15,3.83v-.02c0-1.26-.93-2.32-2.23-2.32s-2.21,1.03-2.21,2.29v.02c0,1.26.93,2.32,2.23,2.32s2.21-1.03,2.21-2.3"/>
            </g>
          </g>
          <g>
            <path class="cls-5" d="M44.64,17.95h4.73c3.81,0,6.44,2.62,6.44,6.03v.04c0,3.41-2.63,6.06-6.44,6.06h-4.73v-12.12ZM47.31,20.36v7.31h2.06c2.18,0,3.65-1.47,3.65-3.62v-.03c0-2.15-1.47-3.65-3.65-3.65h-2.06Z"/>
            <path class="cls-5" d="M61.56,17.87h2.46l5.2,12.21h-2.79l-1.11-2.72h-5.13l-1.11,2.72h-2.72l5.2-12.21ZM64.36,25l-1.61-3.93-1.61,3.93h3.22Z"/>
            <path class="cls-5" d="M72.44,20.41h-3.69v-2.46h10.04v2.46h-3.69v9.66h-2.67v-9.66Z"/>
            <path class="cls-5" d="M83.52,17.87h2.46l5.2,12.21h-2.79l-1.11-2.72h-5.13l-1.11,2.72h-2.72l5.2-12.21ZM86.32,25l-1.61-3.93-1.61,3.93h3.22Z"/>
            <path class="cls-5" d="M102.57,17.87h2.46l5.2,12.21h-2.79l-1.11-2.72h-5.13l-1.11,2.72h-2.72l5.2-12.21ZM105.37,25l-1.61-3.93-1.61,3.93h3.22Z"/>
            <path class="cls-5" d="M112.18,17.95h2.46l5.68,7.46v-7.46h2.63v12.12h-2.27l-5.87-7.71v7.71h-2.63v-12.12Z"/>
            <path class="cls-5" d="M125.95,17.95h4.73c3.81,0,6.44,2.62,6.44,6.03v.04c0,3.41-2.63,6.06-6.44,6.06h-4.73v-12.12ZM128.62,20.36v7.31h2.06c2.18,0,3.65-1.47,3.65-3.62v-.03c0-2.15-1.47-3.65-3.65-3.65h-2.06Z"/>
            <path class="cls-5" d="M44.64,35.49h4.73c3.81,0,6.44,2.62,6.44,6.03v.03c0,3.41-2.63,6.06-6.44,6.06h-4.73v-12.12ZM47.31,37.9v7.31h2.06c2.18,0,3.65-1.47,3.65-3.62v-.04c0-2.15-1.47-3.65-3.65-3.65h-2.06Z"/>
            <path class="cls-5" d="M58.27,35.49h9.14v2.37h-6.49v2.46h5.71v2.37h-5.71v2.55h6.58v2.37h-9.23v-12.12Z"/>
            <path class="cls-5" d="M69.96,35.49h2.88l3.19,5.13,3.19-5.13h2.88v12.12h-2.65v-7.91l-3.41,5.18h-.07l-3.38-5.13v7.86h-2.62v-12.12Z"/>
            <path class="cls-5" d="M84.54,41.59v-.04c0-3.45,2.72-6.27,6.46-6.27s6.42,2.79,6.42,6.24v.03c0,3.45-2.72,6.27-6.46,6.27s-6.42-2.79-6.42-6.23ZM94.64,41.59v-.04c0-2.08-1.52-3.81-3.67-3.81s-3.64,1.7-3.64,3.78v.03c0,2.08,1.52,3.81,3.67,3.81s3.64-1.7,3.64-3.78Z"/>
            <path class="cls-5" d="M99.35,41.59v-.04c0-3.45,2.6-6.27,6.32-6.27,2.29,0,3.65.76,4.78,1.87l-1.7,1.96c-.94-.85-1.89-1.37-3.1-1.37-2.04,0-3.52,1.7-3.52,3.78v.03c0,2.08,1.44,3.81,3.52,3.81,1.39,0,2.23-.55,3.19-1.42l1.7,1.71c-1.25,1.33-2.63,2.17-4.97,2.17-3.57,0-6.22-2.75-6.22-6.23Z"/>
            <path class="cls-5" d="M112.75,35.49h5.54c1.54,0,2.74.43,3.53,1.23.68.68,1.04,1.63,1.04,2.77v.03c0,1.96-1.06,3.19-2.6,3.76l2.96,4.33h-3.12l-2.6-3.88h-2.1v3.88h-2.67v-12.12ZM118.12,41.38c1.3,0,2.04-.69,2.04-1.71v-.03c0-1.14-.8-1.73-2.1-1.73h-2.65v3.48h2.7Z"/>
            <path class="cls-5" d="M129.52,35.41h2.46l5.2,12.21h-2.79l-1.11-2.72h-5.13l-1.11,2.72h-2.72l5.2-12.21ZM132.32,42.54l-1.61-3.93-1.61,3.93h3.22Z"/>
            <path class="cls-5" d="M137.81,41.59v-.04c0-3.45,2.6-6.27,6.32-6.27,2.29,0,3.65.76,4.78,1.87l-1.7,1.96c-.94-.85-1.89-1.37-3.1-1.37-2.04,0-3.52,1.7-3.52,3.78v.03c0,2.08,1.44,3.81,3.52,3.81,1.39,0,2.23-.55,3.19-1.42l1.7,1.71c-1.25,1.33-2.63,2.17-4.97,2.17-3.57,0-6.22-2.75-6.22-6.23Z"/>
            <path class="cls-5" d="M154.45,42.84l-4.66-7.34h3.12l2.89,4.87,2.94-4.87h3.03l-4.66,7.29v4.83h-2.67v-4.78Z"/>
            <path class="cls-5" d="M168.81,35.49h2.67v9.7h6.04v2.42h-8.71v-12.12Z"/>
            <path class="cls-5" d="M183.77,35.41h2.46l5.2,12.21h-2.79l-1.11-2.72h-5.13l-1.11,2.72h-2.72l5.2-12.21ZM186.58,42.54l-1.61-3.93-1.61,3.93h3.22Z"/>
            <path class="cls-5" d="M193.39,35.49h5.63c1.39,0,2.48.38,3.17,1.07.55.55.83,1.23.83,2.06v.04c0,1.37-.73,2.13-1.59,2.61,1.4.54,2.27,1.35,2.27,2.98v.03c0,2.22-1.8,3.33-4.54,3.33h-5.77v-12.12ZM200.36,39.08c0-.8-.62-1.25-1.75-1.25h-2.63v2.56h2.46c1.18,0,1.92-.38,1.92-1.28v-.04ZM199.07,42.61h-3.08v2.67h3.17c1.18,0,1.89-.42,1.89-1.32v-.03c0-.81-.61-1.32-1.97-1.32Z"/>
          </g>
        </g>
      </g>
    </g>
  </g>
</svg>