<?xml version="1.0" encoding="UTF-8"?>
<svg xmlns="http://www.w3.org/2000/svg" xmlns:xlink="http://www.w3.org/1999/xlink" viewBox="0 0 512 512">
  <defs>
    <style>
      .cls-1, .cls-2, .cls-3 {
        fill: none;
      }

      .cls-2 {
        mix-blend-mode: darken;
        stroke-width: 5.4px;
      }

      .cls-2, .cls-3 {
        stroke: #c2f3ff;
        stroke-linecap: round;
        stroke-linejoin: round;
      }

      .cls-3 {
        stroke-width: 5px;
      }

      .cls-4 {
        isolation: isolate;
      }

      .cls-5 {
        fill: #262262;
      }

      .cls-6 {
        fill: maroon;
      }

      .cls-7 {
        fill: #0099cd;
      }

      .cls-8 {
        clip-path: url(#clippath);
      }
    </style>
    <clipPath id="clippath">
      <path class="cls-1" d="M366.45,130.57c-21.53-36.89-52.31-64.9-87.58-83.26l-98.69,196.78,107.86,184.79c104.03-60.72,139.14-194.28,78.42-298.31Z"/>
    </clipPath>
  </defs>
  <g class="cls-4">
    <g id="Layer_1" data-name="Layer 1">
      <g>
        <g>
          <path class="cls-6" d="M68.15,52.14c104.03-60.72,237.59-25.61,298.31,78.42,60.72,104.03,25.61,237.59-78.42,298.31L68.15,52.14Z"/>
          <path class="cls-7" d="M302.59,0c133.45,66.93,187.37,229.37,120.44,362.81-66.93,133.45-229.37,187.37-362.81,120.44L302.59,0Z"/>
        </g>
        <path class="cls-1" d="M366.45,130.57c-21.53-36.89-52.31-64.9-87.58-83.26l-98.69,196.78,107.86,184.79c104.03-60.72,139.14-194.28,78.42-298.31Z"/>
        <g class="cls-8">
          <g>
            <path class="cls-5" d="M366.45,130.57c-21.53-36.89-52.31-64.9-87.58-83.26l-98.69,196.78,107.86,184.79c104.03-60.72,139.14-194.28,78.42-298.31Z"/>
            <line class="cls-2" x1="348.09" y1="424.48" x2="298.74" y2="405.98"/>
            <g>
              <line class="cls-3" x1="295.72" y1="123.72" x2="266.14" y2="32.03"/>
              <line class="cls-3" x1="295.72" y1="123.72" x2="323.89" y2="52.97"/>
              <line class="cls-3" x1="295.72" y1="123.72" x2="240.86" y2="85.24"/>
              <line class="cls-3" x1="295.72" y1="123.72" x2="391.74" y2="132.21"/>
              <line class="cls-3" x1="295.72" y1="123.72" x2="352.36" y2="210.5"/>
              <line class="cls-3" x1="411.19" y1="142.65" x2="352.36" y2="210.5"/>
              <line class="cls-3" x1="433.02" y1="216.67" x2="352.36" y2="210.5"/>
              <line class="cls-3" x1="354.25" y1="264.11" x2="352.36" y2="210.5"/>
              <line class="cls-3" x1="297.79" y1="251.78" x2="352.36" y2="210.5"/>
              <line class="cls-3" x1="297.79" y1="251.78" x2="354.25" y2="264.11"/>
              <line class="cls-3" x1="417.83" y1="205.28" x2="354.25" y2="264.11"/>
              <line class="cls-3" x1="426.85" y1="268.38" x2="354.25" y2="264.11"/>
              <line class="cls-3" x1="354.73" y1="319.15" x2="354.25" y2="264.11"/>
              <line class="cls-3" x1="354.73" y1="319.15" x2="409.77" y2="271.7"/>
              <line class="cls-3" x1="354.73" y1="319.15" x2="410.24" y2="313.93"/>
              <line class="cls-3" x1="354.73" y1="319.15" x2="395.06" y2="353.31"/>
              <line class="cls-3" x1="354.73" y1="319.15" x2="353.78" y2="372.29"/>
              <line class="cls-3" x1="354.73" y1="319.15" x2="293.05" y2="327.69"/>
              <line class="cls-3" x1="297.79" y1="251.78" x2="354.73" y2="319.15"/>
              <line class="cls-3" x1="297.79" y1="251.78" x2="293.05" y2="328.17"/>
              <line class="cls-3" x1="297.79" y1="251.78" x2="234.69" y2="304.92"/>
              <line class="cls-3" x1="293.05" y1="327.69" x2="234.69" y2="304.92"/>
              <line class="cls-3" x1="288.3" y1="362.8" x2="234.69" y2="304.92"/>
              <line class="cls-3" x1="224.25" y1="335.76" x2="234.69" y2="304.92"/>
              <line class="cls-3" x1="163.99" y1="312.51" x2="234.69" y2="304.92"/>
              <line class="cls-3" x1="178.23" y1="258.42" x2="234.69" y2="304.92"/>
              <line class="cls-3" x1="293.05" y1="327.69" x2="288.3" y2="362.8"/>
              <line class="cls-3" x1="293.05" y1="327.69" x2="353.78" y2="372.29"/>
              <line class="cls-3" x1="353.3" y1="371.34" x2="288.3" y2="362.8"/>
              <line class="cls-3" x1="353.3" y1="371.34" x2="298.74" y2="405.98"/>
              <line class="cls-3" x1="298.74" y1="463.39" x2="298.74" y2="405.98"/>
              <line class="cls-3" x1="253.67" y1="404.08" x2="298.74" y2="405.98"/>
              <line class="cls-3" x1="298.74" y1="406.45" x2="288.3" y2="362.8"/>
              <line class="cls-3" x1="264.58" y1="416.89" x2="288.3" y2="362.8"/>
              <line class="cls-3" x1="229.47" y1="399.81" x2="288.3" y2="362.8"/>
              <line class="cls-3" x1="226.15" y1="352.84" x2="288.3" y2="362.8"/>
              <line class="cls-3" x1="297.79" y1="251.78" x2="236.11" y2="231.37"/>
              <line class="cls-3" x1="234.69" y1="304.92" x2="236.11" y2="231.37"/>
              <line class="cls-3" x1="142.17" y1="258.89" x2="236.11" y2="231.37"/>
              <line class="cls-3" x1="143.59" y1="215.24" x2="236.11" y2="231.37"/>
              <line class="cls-3" x1="162.57" y1="177.28" x2="236.11" y2="231.37"/>
              <line class="cls-3" x1="260.31" y1="185.83" x2="236.11" y2="231.37"/>
              <line class="cls-3" x1="233.26" y1="152.61" x2="236.11" y2="231.37"/>
              <line class="cls-3" x1="233.26" y1="152.61" x2="199.1" y2="195.31"/>
              <line class="cls-3" x1="233.26" y1="152.61" x2="233.26" y2="100.42"/>
              <line class="cls-3" x1="233.26" y1="152.61" x2="197.68" y2="139.33"/>
              <line class="cls-3" x1="233.26" y1="152.61" x2="257.46" y2="171.12"/>
              <line class="cls-3" x1="233.26" y1="152.61" x2="259.86" y2="184.42"/>
              <line class="cls-3" x1="256.99" y1="170.17" x2="260.1" y2="184.9"/>
              <line class="cls-3" x1="295.72" y1="123.72" x2="297.79" y2="251.78"/>
              <line class="cls-3" x1="295.72" y1="123.72" x2="233.74" y2="152.61"/>
              <line class="cls-3" x1="295.72" y1="123.72" x2="256.99" y2="170.64"/>
              <line class="cls-3" x1="295.72" y1="123.72" x2="260.31" y2="185.83"/>
            </g>
          </g>
        </g>
      </g>
    </g>
  </g>
</svg>