<?xml version="1.0" encoding="UTF-8"?>
<svg xmlns="http://www.w3.org/2000/svg" xmlns:xlink="http://www.w3.org/1999/xlink" viewBox="0 0 36.29 47.45">
  <defs>
    <style>
      .cls-1 {
        fill: none;
      }

      .cls-2, .cls-3 {
        fill: #c2f3ff;
      }

      .cls-4 {
        isolation: isolate;
      }

      .cls-3 {
        mix-blend-mode: darken;
      }

      .cls-5 {
        fill: #262262;
      }

      .cls-6 {
        fill: maroon;
      }

      .cls-7 {
        fill: #0099cd;
      }

      .cls-8 {
        clip-path: url(#clippath);
      }
    </style>
    <clipPath id="clippath">
      <path class="cls-1" d="M28.38,12.1c-1.99-3.42-4.85-6.01-8.12-7.72l-9.15,18.24,10,17.13c9.64-5.63,12.89-18,7.27-27.65Z"/>
    </clipPath>
  </defs>
  <g class="cls-4">
    <g id="Layer_2" data-name="Layer 2">
      <g id="Layer_1-2" data-name="Layer 1">
        <g>
          <g>
            <path class="cls-6" d="M.73,4.83C10.38-.79,22.75,2.46,28.38,12.1c5.63,9.64,2.37,22.02-7.27,27.65L.73,4.83Z"/>
            <path class="cls-7" d="M22.46,0c12.37,6.2,17.36,21.26,11.16,33.62S12.37,50.99,0,44.79L22.46,0Z"/>
          </g>
          <path class="cls-1" d="M28.38,12.1c-1.99-3.42-4.85-6.01-8.12-7.72l-9.15,18.24,10,17.13c9.64-5.63,12.89-18,7.27-27.65Z"/>
          <g class="cls-8">
            <g>
              <path class="cls-5" d="M28.38,12.1c-1.99-3.42-4.85-6.01-8.12-7.72l-9.15,18.24,10,17.13c9.64-5.63,12.89-18,7.27-27.65Z"/>
              <path class="cls-3" d="M26.68,39.59s-.06,0-.09-.02l-4.57-1.71c-.13-.05-.19-.19-.15-.32.05-.13.19-.19.32-.15l4.57,1.71c.13.05.19.19.15.32-.04.1-.13.16-.23.16Z"/>
              <g>
                <path class="cls-2" d="M21.82,11.71c-.11,0-.2-.07-.24-.17l-2.74-8.5c-.04-.13.03-.27.16-.32.13-.04.27.03.31.16l2.74,8.5c.04.13-.03.27-.16.32-.03,0-.05.01-.08.01Z"/>
                <path class="cls-2" d="M21.82,11.71s-.06,0-.09-.02c-.13-.05-.19-.2-.14-.33l2.61-6.56c.05-.13.2-.19.32-.14.13.05.19.2.14.33l-2.61,6.56c-.04.1-.13.16-.23.16Z"/>
                <path class="cls-2" d="M21.82,11.71s-.1-.01-.14-.04l-5.08-3.57c-.11-.08-.14-.24-.06-.35.08-.11.24-.14.35-.06l5.08,3.57c.11.08.14.24.06.35-.05.07-.13.11-.2.11Z"/>
                <path class="cls-2" d="M30.72,12.5s-.02,0-.02,0l-8.9-.79c-.14-.01-.24-.13-.23-.27s.14-.24.27-.23l8.9.79c.14.01.24.13.23.27-.01.13-.12.23-.25.23Z"/>
                <path class="cls-2" d="M27.07,19.76c-.08,0-.16-.04-.21-.11l-5.25-8.04c-.08-.12-.04-.27.07-.35.12-.08.27-.04.35.07l5.25,8.04c.08.12.04.27-.07.35-.04.03-.09.04-.14.04Z"/>
                <path class="cls-2" d="M27.07,19.76c-.06,0-.12-.02-.16-.06-.1-.09-.12-.25-.03-.35l5.45-6.29c.09-.1.25-.11.35-.02.1.09.12.25.03.35l-5.45,6.29c-.05.06-.12.09-.19.09Z"/>
                <path class="cls-2" d="M34.55,20.33s-.01,0-.02,0l-7.48-.57c-.14-.01-.24-.13-.23-.27.01-.14.15-.25.27-.23l7.48.57c.14.01.24.13.23.27-.01.13-.12.23-.25.23Z"/>
                <path class="cls-2" d="M27.25,24.73c-.13,0-.25-.11-.25-.24l-.18-4.97c0-.14.1-.25.24-.26.14-.01.25.1.26.24l.18,4.97c0,.14-.1.25-.24.26h0Z"/>
                <path class="cls-2" d="M22.02,23.58c-.08,0-.15-.03-.2-.1-.08-.11-.06-.27.05-.35l5.06-3.83c.11-.08.27-.06.35.05.08.11.06.27-.05.35l-5.06,3.83s-.1.05-.15.05Z"/>
                <path class="cls-2" d="M27.25,24.73s-.04,0-.05,0l-5.23-1.14c-.14-.03-.22-.16-.19-.3.03-.13.16-.22.3-.19l5.23,1.14c.14.03.22.16.19.3-.03.12-.13.2-.24.2Z"/>
                <path class="cls-2" d="M27.25,24.73c-.07,0-.13-.03-.18-.08-.09-.1-.09-.26.01-.35l5.89-5.45c.1-.09.26-.09.35.01.09.1.09.26-.01.35l-5.89,5.45s-.11.07-.17.07Z"/>
                <path class="cls-2" d="M33.98,25.12h-.01l-6.73-.4c-.14,0-.24-.13-.23-.26,0-.14.13-.24.26-.24l6.73.4c.14,0,.24.13.23.26,0,.13-.12.24-.25.24Z"/>
                <path class="cls-2" d="M27.29,29.83c-.14,0-.25-.11-.25-.25l-.04-5.1c0-.14.11-.25.25-.25h0c.14,0,.25.11.25.25l.04,5.1c0,.14-.11.25-.25.25h0Z"/>
                <path class="cls-2" d="M27.29,29.83c-.07,0-.14-.03-.19-.09-.09-.1-.08-.26.03-.35l5.1-4.4c.1-.09.26-.08.35.03.09.1.08.26-.03.35l-5.1,4.4s-.1.06-.16.06Z"/>
                <path class="cls-2" d="M27.29,29.83c-.13,0-.24-.1-.25-.23-.01-.14.09-.26.23-.27l5.14-.48c.14-.02.26.09.27.23.01.14-.09.26-.23.27l-5.14.48s-.02,0-.02,0Z"/>
                <path class="cls-2" d="M31.03,32.99c-.06,0-.11-.02-.16-.06l-3.74-3.17c-.11-.09-.12-.25-.03-.35.09-.1.25-.12.35-.03l3.74,3.17c.11.09.12.25.03.35-.05.06-.12.09-.19.09Z"/>
                <path class="cls-2" d="M27.21,34.75h0c-.14,0-.25-.12-.25-.25l.09-4.92c0-.14.1-.28.25-.25.14,0,.25.12.25.25l-.09,4.92c0,.14-.11.25-.25.25Z"/>
                <path class="cls-2" d="M21.58,30.62c-.12,0-.23-.09-.25-.22-.02-.14.08-.26.21-.28l5.72-.79c.13-.02.26.08.28.21s-.08.26-.21.28l-5.72.79s-.02,0-.03,0Z"/>
                <path class="cls-2" d="M27.29,29.83c-.07,0-.14-.03-.19-.09l-5.28-6.24c-.09-.11-.08-.26.03-.35.11-.09.26-.08.35.03l5.28,6.24c.09.11.08.26-.03.35-.05.04-.1.06-.16.06Z"/>
                <path class="cls-2" d="M21.58,30.66h-.02c-.14,0-.24-.13-.23-.27l.44-7.08c0-.14.13-.24.27-.23.14,0,.24.13.23.27l-.44,7.08c0,.13-.12.23-.25.23Z"/>
                <path class="cls-2" d="M16.17,28.51c-.07,0-.14-.03-.19-.09-.09-.11-.08-.26.03-.35l5.85-4.92c.11-.09.26-.08.35.03.09.11.08.26-.03.35l-5.85,4.92s-.1.06-.16.06Z"/>
                <path class="cls-2" d="M21.58,30.62s-.06,0-.09-.02l-5.41-2.11c-.13-.05-.19-.19-.14-.32s.19-.19.32-.14l5.41,2.11c.13.05.19.19.14.32-.04.1-.13.16-.23.16Z"/>
                <path class="cls-2" d="M21.14,33.87c-.07,0-.13-.03-.18-.08l-4.97-5.36c-.09-.1-.09-.26.01-.35.1-.09.26-.09.35.01l4.97,5.36c.09.1.09.26-.01.35-.05.04-.11.07-.17.07Z"/>
                <path class="cls-2" d="M15.2,31.37s-.05,0-.08-.01c-.13-.04-.2-.19-.16-.32l.97-2.86c.04-.13.19-.2.32-.16.13.04.2.19.16.32l-.97,2.86c-.04.1-.13.17-.24.17Z"/>
                <path class="cls-2" d="M9.62,29.21c-.13,0-.23-.09-.25-.22-.01-.14.08-.26.22-.28l6.55-.7c.14-.01.26.08.28.22.01.14-.08.26-.22.28l-6.55.7s-.02,0-.03,0Z"/>
                <path class="cls-2" d="M16.17,28.51c-.06,0-.11-.02-.16-.06l-5.23-4.31c-.11-.09-.12-.25-.03-.35.09-.11.25-.12.35-.03l5.23,4.31c.11.09.12.25.03.35-.05.06-.12.09-.19.09Z"/>
                <path class="cls-2" d="M21.14,33.87s-.02,0-.03,0c-.14-.02-.23-.14-.21-.28l.44-3.25c.02-.14.14-.23.28-.21.14.02.23.14.21.28l-.44,3.25c-.02.13-.12.22-.25.22Z"/>
                <path class="cls-2" d="M27.21,34.75c-.05,0-.1-.02-.15-.05l-5.63-4.13c-.11-.08-.14-.24-.05-.35.08-.11.24-.13.35-.05l5.63,4.13c.11.08.14.24.05.35-.05.07-.12.1-.2.1Z"/>
                <path class="cls-2" d="M27.16,34.66s-.02,0-.03,0l-6.02-.79c-.14-.02-.23-.14-.22-.28.02-.14.15-.23.28-.22l6.02.79c.14.02.23.14.22.28-.02.13-.12.22-.25.22Z"/>
                <path class="cls-2" d="M22.1,37.87c-.08,0-.16-.04-.21-.12-.07-.12-.04-.27.08-.34l5.06-3.21c.12-.08.27-.04.34.08.07.12.04.27-.08.34l-5.06,3.21s-.09.04-.13.04Z"/>
                <path class="cls-2" d="M22.1,43.19c-.14,0-.25-.11-.25-.25v-5.32c0-.14.11-.25.25-.25s.25.11.25.25v5.32c0,.14-.11.25-.25.25Z"/>
                <path class="cls-2" d="M22.1,37.87h-.01l-4.18-.18c-.14,0-.24-.12-.24-.26,0-.14.1-.26.26-.24l4.18.18c.14,0,.24.12.24.26,0,.13-.12.24-.25.24Z"/>
                <path class="cls-2" d="M22.1,37.92c-.11,0-.22-.08-.24-.19l-.97-4.05c-.03-.13.05-.27.19-.3.14-.04.27.05.3.18l.97,4.05c.03.13-.05.27-.19.3-.02,0-.04,0-.06,0Z"/>
                <path class="cls-2" d="M18.94,38.88s-.07,0-.1-.02c-.13-.05-.18-.2-.13-.33l2.2-5.01c.06-.13.2-.18.33-.13.13.05.18.2.13.33l-2.2,5.01c-.04.09-.13.15-.23.15Z"/>
                <path class="cls-2" d="M15.68,37.3c-.08,0-.16-.04-.21-.12-.07-.12-.04-.27.08-.34l5.45-3.43c.12-.07.27-.04.34.08.07.12.04.27-.08.34l-5.45,3.43s-.09.04-.13.04Z"/>
                <path class="cls-2" d="M21.14,33.87s-.03,0-.04,0l-5.76-.92c-.14-.02-.23-.15-.21-.29.02-.14.15-.23.29-.21l5.76.92c.14.02.23.15.21.29-.02.12-.13.21-.25.21Z"/>
                <path class="cls-2" d="M22.02,23.58s-.05,0-.08-.01l-5.72-1.89c-.13-.04-.2-.18-.16-.32.04-.13.18-.2.32-.16l5.72,1.89c.13.04.2.18.16.32-.03.11-.13.17-.24.17Z"/>
                <path class="cls-2" d="M16.17,28.51h0c-.14,0-.25-.12-.25-.25l.13-6.82c0-.14.13-.27.25-.25.14,0,.25.12.25.25l-.13,6.82c0,.14-.11.25-.25.25Z"/>
                <path class="cls-2" d="M7.59,24.24c-.11,0-.21-.07-.24-.18-.04-.13.04-.27.17-.31l8.71-2.55c.13-.04.27.04.31.17.04.13-.04.27-.17.31l-8.71,2.55s-.05,0-.07,0Z"/>
                <path class="cls-2" d="M16.3,21.69s-.03,0-.04,0l-8.57-1.5c-.14-.02-.23-.15-.2-.29.02-.14.15-.23.29-.2l8.57,1.5c.14.02.23.15.2.29-.02.12-.13.21-.25.21Z"/>
                <path class="cls-2" d="M16.3,21.69c-.05,0-.1-.02-.15-.05l-6.82-5.01c-.11-.08-.14-.24-.05-.35.08-.11.24-.13.35-.05l6.82,5.01c.11.08.14.24.05.35-.05.07-.12.1-.2.1Z"/>
                <path class="cls-2" d="M16.3,21.69s-.08,0-.12-.03c-.12-.06-.17-.22-.1-.34l2.24-4.22c.06-.12.22-.17.34-.1.12.06.17.22.1.34l-2.24,4.22c-.04.08-.13.13-.22.13Z"/>
                <path class="cls-2" d="M16.3,21.69c-.13,0-.25-.11-.25-.24l-.26-7.3c0-.14.1-.25.24-.26.15,0,.25.1.26.24l.26,7.3c0,.14-.1.25-.24.26h0Z"/>
                <path class="cls-2" d="M12.87,18.35c-.06,0-.11-.02-.16-.05-.11-.09-.12-.24-.04-.35l3.17-3.96c.09-.11.24-.12.35-.04.11.09.12.24.04.35l-3.17,3.96c-.05.06-.12.09-.2.09Z"/>
                <path class="cls-2" d="M16.04,14.39c-.14,0-.25-.11-.25-.25v-4.84c0-.14.11-.25.25-.25s.25.11.25.25v4.84c0,.14-.11.25-.25.25Z"/>
                <path class="cls-2" d="M16.04,14.39s-.06,0-.09-.02l-3.3-1.23c-.13-.05-.2-.19-.15-.32.05-.13.19-.19.32-.15l3.3,1.23c.13.05.2.19.15.32-.04.1-.13.16-.23.16Z"/>
                <path class="cls-2" d="M18.28,16.11c-.05,0-.11-.02-.15-.05l-2.24-1.71c-.11-.08-.13-.24-.05-.35.08-.11.24-.13.35-.05l2.24,1.71c.11.08.13.24.05.35-.05.06-.12.1-.2.1Z"/>
                <path class="cls-2" d="M18.59,17.51c-.07,0-.14-.03-.19-.09l-2.55-3.12c-.09-.11-.07-.26.04-.35s.26-.07.35.04l2.55,3.12c.09.11.07.26-.04.35-.05.04-.1.06-.16.06Z"/>
                <path class="cls-2" d="M18.59,17.51c-.11,0-.22-.08-.24-.19l-.35-1.5c-.03-.13.05-.27.19-.3.13-.03.27.05.3.19l.35,1.5c.03.13-.05.27-.19.3-.02,0-.04,0-.06,0Z"/>
                <path class="cls-2" d="M22.02,23.58c-.14,0-.25-.11-.25-.25l-.19-11.87c0-.14.11-.25.25-.25.13-.01.25.11.25.25l.19,11.87c0,.14-.11.25-.25.25h0Z"/>
                <path class="cls-2" d="M16.08,14.39c-.09,0-.18-.05-.23-.14-.06-.12,0-.27.12-.33l5.74-2.68c.12-.06.27,0,.33.12.06.12,0,.27-.12.33l-5.74,2.68s-.07.02-.11.02Z"/>
                <path class="cls-2" d="M18.24,16.06c-.06,0-.11-.02-.16-.06-.11-.09-.12-.25-.03-.35l3.59-4.35c.09-.11.25-.12.35-.03.11.09.12.25.03.35l-3.59,4.35c-.05.06-.12.09-.19.09Z"/>
                <path class="cls-2" d="M18.54,17.47s-.08-.01-.12-.03c-.12-.07-.16-.22-.09-.34l3.28-5.76c.07-.12.22-.16.34-.09.12.07.16.22.09.34l-3.28,5.76c-.05.08-.13.13-.22.13Z"/>
              </g>
            </g>
          </g>
        </g>
      </g>
    </g>
  </g>
</svg>